#!OML:ASF E:\Style6\Style6.ASF
:FULLY-SPECIFIED
:DEGREES
3238
root 1.83962 16.7713 -0.803662 -10.809 -14.2204 -1.05214
lowerback 18.1591 -0.892423 3.80147
upperback 15.7343 -1.00619 2.17248
thorax 6.97016 -0.383779 0.315233
lowerneck 13.887 0.384618 3.63234
upperneck -17.3916 -0.205771 -7.76638
head -7.65122 0.402918 -3.14816
rclavicle -3.18055e-014 7.15625e-015
rhumerus -12.2388 20.33 -58.9335
rradius 49.5583
rwrist -29.6604
rhand 12.8099 7.54052
rfingers 7.12502
rthumb 37.7863 -18.3165
lclavicle -3.18055e-014 7.15625e-015
lhumerus -15.1118 -41.9852 59.0472
lradius 44.9183
lwrist 36.9918
lhand 11.5523 22.3299
lfingers 7.12502
lthumb 36.5972 48.4975
rfemur -17.0871 -6.38051 13.734
rtibia 48.3403
rfoot -13.4019 5.86029
rtoes -19.4154
lfemur -13.8272 15.6831 -20.161
ltibia 51.918
lfoot -20.2441 8.77364
ltoes -14.5678
3239
root 1.8369 16.762 -0.79373 -10.9972 -14.2439 -0.914996
lowerback 18.0709 -0.85944 3.67256
upperback 15.8456 -0.988316 2.12234
thorax 7.14552 -0.381405 0.330557
lowerneck 13.9235 0.39617 3.5657
upperneck -17.3445 -0.194012 -7.73
head -7.64175 0.409775 -3.12545
rclavicle -1.98785e-014 -1.03368e-014
rhumerus -12.4468 20.0836 -58.9889
rradius 49.3415
rwrist -29.615
rhand 12.9411 7.57211
rfingers 7.12502
rthumb 37.9102 -18.2515
lclavicle -1.98785e-014 -1.03368e-014
lhumerus -15.3298 -41.8595 59.1758
lradius 44.9712
lwrist 37.2692
lhand 11.5419 22.1318
lfingers 7.12502
lthumb 36.5872 48.3019
rfemur -16.9806 -6.38143 13.5428
rtibia 48.5452
rfoot -13.5236 6.05726
rtoes -18.9784
lfemur -13.6378 15.7528 -20.2382
ltibia 52.0063
lfoot -20.3245 8.77391
ltoes -14.4717
3240
root 1.83349 16.7531 -0.78346 -11.0942 -14.2521 -0.906588
lowerback 17.9474 -0.840746 3.66105
upperback 15.9144 -0.975618 2.11695
thorax 7.29047 -0.373855 0.328642
lowerneck 14.0014 0.368379 3.61678
upperneck -17.3575 -0.242363 -7.8414
head -7.66301 0.395465 -3.16744
rclavicle 5.56597e-015 1.35174e-014
rhumerus -12.6718 19.8861 -59.0404
rradius 49.0644
rwrist -29.558
rhand 13.1044 7.71479
rfingers 7.12502
rthumb 38.0644 -18.0669
lclavicle 5.56597e-015 1.35174e-014
lhumerus -15.6028 -41.732 59.3815
lradius 45.0083
lwrist 37.5149
lhand 11.5332 21.9589
lfingers 7.12502
lthumb 36.579 48.131
rfemur -16.9221 -6.40028 13.5017
rtibia 48.7174
rfoot -13.6158 6.22575
rtoes -18.7241
lfemur -13.5282 15.7988 -20.1942
ltibia 52.0965
lfoot -20.3865 8.73487
ltoes -14.6277
3241
root 1.83113 16.7443 -0.77446 -11.2224 -14.2252 -0.900941
lowerback 17.9123 -0.848663 3.66626
upperback 15.9641 -0.989635 2.1065
thorax 7.36699 -0.378801 0.315941
lowerneck 14.0067 0.341071 3.65656
upperneck -17.2646 -0.282445 -7.92527
head -7.63609 0.380754 -3.19602
rclavicle -2.54444e-014 2.70347e-014
rhumerus -12.8634 19.7954 -59.0946
rradius 48.767
rwrist -29.5604
rhand 13.2541 7.79859
rfingers 7.12502
rthumb 38.2058 -17.9443
lclavicle -2.54444e-014 2.70347e-014
lhumerus -15.8948 -41.5346 59.6196
lradius 45.0219
lwrist 37.7237
lhand 11.7418 21.9848
lfingers 7.12502
lthumb 36.7765 48.1067
rfemur -16.8288 -6.48229 13.447
rtibia 48.8794
rfoot -13.7096 6.31913
rtoes -18.8719
lfemur -13.4145 15.8445 -20.151
ltibia 52.2009
lfoot -20.4475 8.78036
ltoes -15.0972
3242
root 1.8286 16.736 -0.764498 -11.3914 -14.1505 -0.794919
lowerback 17.9055 -0.851476 3.55099
upperback 16.005 -1.00805 2.0911
thorax 7.41783 -0.397234 0.365805
lowerneck 14.0671 0.327145 3.52268
upperneck -17.2084 -0.311114 -7.84137
head -7.63061 0.368387 -3.14201
rclavicle -1.23246e-014 1.90833e-014
rhumerus -13.0759 19.8953 -59.1018
rradius 48.5365
rwrist -29.6987
rhand 13.3731 7.88659
rfingers 7.12502
rthumb 38.3182 -17.8254
lclavicle -1.23246e-014 1.90833e-014
lhumerus -16.1903 -41.5171 59.8603
lradius 45.0743
lwrist 38.0634
lhand 11.7837 21.9161
lfingers 7.12502
lthumb 36.8161 48.0279
rfemur -16.6921 -6.62953 13.2612
rtibia 49.0252
rfoot -13.8516 6.35067
rtoes -19.5386
lfemur -13.2653 15.85 -20.2197
ltibia 52.3112
lfoot -20.5432 8.83474
ltoes -15.1396
3243
root 1.82533 16.7257 -0.756323 -11.5363 -14.1642 -0.76035
lowerback 17.9474 -0.810737 3.55185
upperback 16.012 -0.951961 2.07954
thorax 7.40502 -0.367962 0.347197
lowerneck 14.2261 0.301116 3.39779
upperneck -17.2113 -0.345506 -7.70378
head -7.66234 0.350065 -3.0734
rclavicle -2.38542e-014 2.3059e-014
rhumerus -13.4208 20.0479 -59.1327
rradius 48.3557
rwrist -29.9479
rhand 13.3391 7.90021
rfingers 7.12502
rthumb 38.286 -17.8206
lclavicle -2.38542e-014 2.3059e-014
lhumerus -16.4201 -41.5875 60.044
lradius 45.1376
lwrist 38.2678
lhand 11.7933 21.7882
lfingers 7.12502
lthumb 36.8252 47.8977
rfemur -16.5918 -6.61677 13.1926
rtibia 49.1704
rfoot -13.9449 6.43573
rtoes -19.1961
lfemur -13.1391 15.9191 -20.1833
ltibia 52.4413
lfoot -20.618 8.84842
ltoes -15.4101
3244
root 1.82111 16.7178 -0.749802 -11.6117 -14.1968 -0.898724
lowerback 17.9974 -0.799554 3.70077
upperback 16.0082 -0.917327 2.08271
thorax 7.37581 -0.336892 0.264301
lowerneck 14.3192 0.286306 3.4411
upperneck -17.2134 -0.35007 -7.68247
head -7.67982 0.344788 -3.07417
rclavicle 2.70347e-014 -6.36111e-015
rhumerus -13.7695 20.1784 -59.2496
rradius 48.2677
rwrist -30.0994
rhand 13.2117 7.84253
rfingers 7.12502
rthumb 38.1658 -17.9114
lclavicle 2.70347e-014 -6.36111e-015
lhumerus -16.6973 -41.5569 60.1924
lradius 45.2513
lwrist 38.4773
lhand 11.9212 21.8345
lfingers 7.12502
lthumb 36.9462 47.9129
rfemur -16.5098 -6.60141 13.3386
rtibia 49.2886
rfoot -14.0509 6.35098
rtoes -19.8412
lfemur -13.0638 15.9652 -19.9625
ltibia 52.5802
lfoot -20.7228 8.77631
ltoes -15.2517
